<svg id="visual" viewBox="0 0 900 600" width="900" height="600" xmlns="http://www.w3.org/2000/svg" xmlns:xlink="http://www.w3.org/1999/xlink" version="1.1"><rect x="0" y="0" width="900" height="600" fill="#ffffff"></rect><defs><linearGradient id="grad1_0" x1="33.3%" y1="0%" x2="100%" y2="100%"><stop offset="20%" stop-color="#ffffff" stop-opacity="1"></stop><stop offset="80%" stop-color="#ffffff" stop-opacity="1"></stop></linearGradient></defs><defs><linearGradient id="grad2_0" x1="0%" y1="0%" x2="66.7%" y2="100%"><stop offset="20%" stop-color="#ffffff" stop-opacity="1"></stop><stop offset="80%" stop-color="#ffffff" stop-opacity="1"></stop></linearGradient></defs><g transform="translate(900, 0)"><path d="M0 513.8C-96.8 504.4 -193.6 494.9 -256.9 445C-320.2 395 -349.9 304.4 -387.1 223.5C-424.3 142.6 -469.1 71.3 -513.8 0L0 0Z" fill="#aaccff"></path></g><g transform="translate(0, 600)"><path d="M0 -513.8C92.1 -501.6 184.2 -489.5 256.9 -445C329.6 -400.4 383 -323.6 422.6 -244C462.2 -164.4 488 -82.2 513.8 0L0 0Z" fill="#aaccff"></path></g></svg>