<svg id="visual" viewBox="0 0 900 600" width="900" height="600" xmlns="http://www.w3.org/2000/svg" xmlns:xlink="http://www.w3.org/1999/xlink" version="1.1"><rect x="0" y="0" width="900" height="600" fill="#ffffff"></rect><defs><linearGradient id="grad1_0" x1="33.3%" y1="0%" x2="100%" y2="100%"><stop offset="20%" stop-color="#3c89fa" stop-opacity="1"></stop><stop offset="80%" stop-color="#3c89fa" stop-opacity="1"></stop></linearGradient></defs><defs><linearGradient id="grad1_1" x1="33.3%" y1="0%" x2="100%" y2="100%"><stop offset="20%" stop-color="#3c89fa" stop-opacity="1"></stop><stop offset="80%" stop-color="#81a5fc" stop-opacity="1"></stop></linearGradient></defs><defs><linearGradient id="grad1_2" x1="33.3%" y1="0%" x2="100%" y2="100%"><stop offset="20%" stop-color="#b0c2fe" stop-opacity="1"></stop><stop offset="80%" stop-color="#81a5fc" stop-opacity="1"></stop></linearGradient></defs><defs><linearGradient id="grad1_3" x1="33.3%" y1="0%" x2="100%" y2="100%"><stop offset="20%" stop-color="#b0c2fe" stop-opacity="1"></stop><stop offset="80%" stop-color="#d9e0ff" stop-opacity="1"></stop></linearGradient></defs><defs><linearGradient id="grad1_4" x1="33.3%" y1="0%" x2="100%" y2="100%"><stop offset="20%" stop-color="#ffffff" stop-opacity="1"></stop><stop offset="80%" stop-color="#d9e0ff" stop-opacity="1"></stop></linearGradient></defs><defs><linearGradient id="grad2_0" x1="0%" y1="0%" x2="66.7%" y2="100%"><stop offset="20%" stop-color="#3c89fa" stop-opacity="1"></stop><stop offset="80%" stop-color="#3c89fa" stop-opacity="1"></stop></linearGradient></defs><defs><linearGradient id="grad2_1" x1="0%" y1="0%" x2="66.7%" y2="100%"><stop offset="20%" stop-color="#81a5fc" stop-opacity="1"></stop><stop offset="80%" stop-color="#3c89fa" stop-opacity="1"></stop></linearGradient></defs><defs><linearGradient id="grad2_2" x1="0%" y1="0%" x2="66.7%" y2="100%"><stop offset="20%" stop-color="#81a5fc" stop-opacity="1"></stop><stop offset="80%" stop-color="#b0c2fe" stop-opacity="1"></stop></linearGradient></defs><defs><linearGradient id="grad2_3" x1="0%" y1="0%" x2="66.7%" y2="100%"><stop offset="20%" stop-color="#d9e0ff" stop-opacity="1"></stop><stop offset="80%" stop-color="#b0c2fe" stop-opacity="1"></stop></linearGradient></defs><defs><linearGradient id="grad2_4" x1="0%" y1="0%" x2="66.7%" y2="100%"><stop offset="20%" stop-color="#d9e0ff" stop-opacity="1"></stop><stop offset="80%" stop-color="#ffffff" stop-opacity="1"></stop></linearGradient></defs><g transform="translate(900, 0)"><path d="M0 513.8C-90.8 500.9 -181.6 488 -256.9 445C-332.2 401.9 -391.9 328.7 -432.1 249.5C-472.4 170.3 -493.1 85.2 -513.8 0L0 0Z" fill="#ecefff"></path><path d="M0 411C-72.6 400.7 -145.3 390.4 -205.5 356C-265.7 321.5 -313.5 262.9 -345.7 199.6C-377.9 136.3 -394.5 68.1 -411 0L0 0Z" fill="#c5d1fe"></path><path d="M0 308.3C-54.5 300.5 -109 292.8 -154.1 267C-199.3 241.1 -235.2 197.2 -259.3 149.7C-283.4 102.2 -295.8 51.1 -308.3 0L0 0Z" fill="#9ab3fd"></path><path d="M0 205.5C-36.3 200.4 -72.6 195.2 -102.8 178C-132.9 160.8 -156.8 131.5 -172.9 99.8C-188.9 68.1 -197.2 34.1 -205.5 0L0 0Z" fill="#6497fb"></path><path d="M0 102.8C-18.2 100.2 -36.3 97.6 -51.4 89C-66.4 80.4 -78.4 65.7 -86.4 49.9C-94.5 34.1 -98.6 17 -102.8 0L0 0Z" fill="#3c89fa"></path></g><g transform="translate(0, 600)"><path d="M0 -513.8C86 -494.5 171.9 -475.1 251 -434.7C330.1 -394.3 402.3 -332.9 445 -256.9C487.6 -180.9 500.7 -90.5 513.8 0L0 0Z" fill="#ecefff"></path><path d="M0 -411C68.8 -395.6 137.5 -380.1 200.8 -347.8C264.1 -315.5 321.8 -266.3 356 -205.5C390.1 -144.7 400.6 -72.4 411 0L0 0Z" fill="#c5d1fe"></path><path d="M0 -308.3C51.6 -296.7 103.1 -285.1 150.6 -260.8C198.1 -236.6 241.4 -199.7 267 -154.1C292.6 -108.6 300.4 -54.3 308.3 0L0 0Z" fill="#9ab3fd"></path><path d="M0 -205.5C34.4 -197.8 68.8 -190.1 100.4 -173.9C132 -157.7 160.9 -133.1 178 -102.8C195 -72.4 200.3 -36.2 205.5 0L0 0Z" fill="#6497fb"></path><path d="M0 -102.8C17.2 -98.9 34.4 -95 50.2 -86.9C66 -78.9 80.5 -66.6 89 -51.4C97.5 -36.2 100.1 -18.1 102.8 0L0 0Z" fill="#3c89fa"></path></g></svg>