<svg id="visual" viewBox="0 0 900 600" width="900" height="600" xmlns="http://www.w3.org/2000/svg" xmlns:xlink="http://www.w3.org/1999/xlink" version="1.1"><rect x="0" y="0" width="900" height="600" fill="#ffffff"></rect><defs><linearGradient id="grad1_0" x1="33.3%" y1="0%" x2="100%" y2="100%"><stop offset="20%" stop-color="#ffffff" stop-opacity="1"></stop><stop offset="80%" stop-color="#ffffff" stop-opacity="1"></stop></linearGradient></defs><defs><linearGradient id="grad2_0" x1="0%" y1="0%" x2="66.7%" y2="100%"><stop offset="20%" stop-color="#ffffff" stop-opacity="1"></stop><stop offset="80%" stop-color="#ffffff" stop-opacity="1"></stop></linearGradient></defs><g transform="translate(900, 0)"><path d="M0 432.7C-57.2 423 -114.4 413.3 -160.7 388C-207.1 362.7 -242.5 321.8 -284.3 284.3C-326 246.7 -374 212.4 -399.7 165.6C-425.5 118.8 -429.1 59.4 -432.7 0L0 0Z" fill="#3c89fa"></path></g><g transform="translate(0, 600)"><path d="M0 -432.7C61.1 -426.3 122.3 -420 160 -386.2C197.7 -352.3 211.9 -291 253.9 -253.9C295.8 -216.7 365.3 -203.8 399.7 -165.6C434.1 -127.3 433.4 -63.7 432.7 0L0 0Z" fill="#3c89fa"></path></g></svg>